<?xml version="1.0" standalone="no"?>
<!DOCTYPE svg PUBLIC "-//W3C//DTD SVG 1.0//EN"
	"http://www.w3.org/TR/2001/REC-SVG-20010904/DTD/svg10.dtd">
<svg width="200" height="150">
	<defs>
		<pattern id="Argyle" width="50" height="50" patternUnits="userSpaceOnUse"		patternContentUnits="userSpaceOnUse">	<!--<pattern>定义了一个图案，可以被其它元素引用生成填涂效果。patternUnits等特性指定了图案填涂时的坐标系等特征，以获得相应的填涂方式-->
			<g>
				<polygon style="stroke:rgb(112,97,66);stroke-width:1;stroke-opacity:1;stroke-miterlimit:30;fill:rgb(215,207,189);
					fill-opacity:1" points="25,10 34,25 25,40 16,25"/>
				<polygon style="stroke:rgb(112,97,66);stroke-width:1;stroke-opacity:1;stroke-miterlimit:30;fill:rgb(215,207,189);
					fill-opacity:1" points="50,10 59,25 50,40 41,25"/>
				<polygon style="stroke:rgb(112,97,66);stroke-width:1;stroke-opacity:1;stroke-miterlimit:30;fill:rgb(215,207,189);
					fill-opacity:1" points="0,10 9,25 0,40 -9,25"/>
				<polygon style="stroke:rgb(52,48,40);stroke-width:1;stroke-opacity:1;stroke-miterlimit:30;fill:rgb(172,152,112);
					fill-opacity:1" points="11,0 21,25 11,50 1,25"/>
				<polygon style="stroke:rgb(52,48,40);stroke-width:1;stroke-opacity:1;stroke-miterlimit:30;fill:rgb(172,152,112);
					fill-opacity:1" points="39,0 49,25 39,50 29,25"/>
				<polygon style="stroke:rgb(112,97,66);stroke-width:1;stroke-opacity:1;stroke-miterlimit:30;fill:rgb(112,97,66);
					fill-opacity:1" points="20,0 30,0 25,9"/>
				<polygon style="stroke:rgb(112,97,66);stroke-width:1;stroke-opacity:1;stroke-miterlimit:30;fill:rgb(112,97,66);
					fill-opacity:1" points="20,50 25,41 30,50"/>
			</g>
		</pattern>
	</defs>
	<ellipse cx="100" cy="70" rx="60" ry="40"
		 style="fill:url(#Argyle);stroke:rgb(0,0,0);stroke-width:10"/>	 <!--<ellipse>的fill样式属性通过id引用了前面已定义的<pattern>-->
</svg>
